<?xml version="1.0" encoding="UTF-8" standalone="no"?>
<svg
   xmlns:dc="http://purl.org/dc/elements/1.1/"
   xmlns:cc="http://creativecommons.org/ns#"
   xmlns:rdf="http://www.w3.org/1999/02/22-rdf-syntax-ns#"
   xmlns:svg="http://www.w3.org/2000/svg"
   xmlns="http://www.w3.org/2000/svg"
   xmlns:sodipodi="http://sodipodi.sourceforge.net/DTD/sodipodi-0.dtd"
   xmlns:inkscape="http://www.inkscape.org/namespaces/inkscape"
   inkscape:version="1.0.1 (3bc2e813f5, 2020-09-07)"
   sodipodi:docname="Likee.svg"
   viewBox="0 0 428.86487 583.5592"
   height="583.5592"
   width="428.86487"
   id="svg60"
   version="1.1">
  <metadata
     id="metadata66">
    <rdf:RDF>
      <cc:Work
         rdf:about="">
        <dc:format>image/svg+xml</dc:format>
        <dc:type
           rdf:resource="http://purl.org/dc/dcmitype/StillImage" />
        <dc:title />
      </cc:Work>
    </rdf:RDF>
  </metadata>
  <defs
     id="defs64" />
  <sodipodi:namedview
     inkscape:current-layer="g72"
     inkscape:window-maximized="1"
     inkscape:window-y="-8"
     inkscape:window-x="-8"
     inkscape:cy="233.79714"
     inkscape:cx="782.52514"
     inkscape:zoom="0.59165403"
     fit-margin-bottom="0"
     fit-margin-right="0"
     fit-margin-left="0"
     fit-margin-top="0"
     showgrid="false"
     id="namedview62"
     inkscape:window-height="715"
     inkscape:window-width="1366"
     inkscape:pageshadow="2"
     inkscape:pageopacity="0"
     guidetolerance="10"
     gridtolerance="10"
     objecttolerance="10"
     borderopacity="1"
     bordercolor="#666666"
     pagecolor="#ffffff"
     inkscape:document-rotation="0" />
  <g
     transform="translate(223.28394,27.317686)"
     id="g68"
     inkscape:label="Image"
     inkscape:groupmode="layer">
    <g
       transform="translate(-406.00394,-132.62795)"
       id="g72">
      <path
         id="path144"
         style="fill:#db45e0;stroke-width:0.32"
         d="m 305.12284,106.03604 c -4.88178,-0.002 -9.77402,0.18758 -12.98828,0.56836 -14.50114,1.71788 -27.60967,5.42223 -39.89843,11.35156 l 87.41992,87.41211 57.79687,-57.83008 -0.002,-0.0215 -0.19531,0.19141 -5.44336,-5.32618 c -6.10168,-5.9731 -10.61854,-9.83813 -16.03902,-13.7207 -17.1143,-12.25858 -35.82042,-19.40384 -57.7207,-22.04688 -3.1754,-0.38326 -8.0479,-0.57625 -12.92969,-0.57812 z"
         sodipodi:nodetypes="ssccccccscss" />
      <path
         id="path136"
         style="fill:#bf39fa;fill-opacity:1;stroke:none;stroke-width:0.32"
         d="m 252.23613,117.95596 -2.9004,1.45703 c -11.60273,5.82724 -24.68597,15.702 -33.37109,25.1875 -8.04967,8.7915 -13.10407,15.84726 -18.66211,26.05273 l -2.63476,4.9336 87.41177,87.35385 57.57651,-57.5726 c 0,0 -87.40039,-87.39258 -87.41992,-87.41211 z"
         sodipodi:nodetypes="ccsccccc" />
      <path
         id="path122"
         style="fill:#954afe;stroke-width:0.32;stroke:none"
         d="m 194.66777,175.58682 -1.88282,4.41211 c -4.49872,10.54906 -7.48485,21.64842 -9.02343,33.53515 -0.72362,5.59051 -0.82667,22.38653 -0.16993,27.67969 3.03019,24.42243 11.54672,44.74798 26.59571,63.37109 l 10.47851,11.54102 c 1.25473,1.27496 2.38964,2.43009 4.06055,4.11914 l 57.32422,-57.27539 c 0.24023,-0.24023 -87.38281,-87.38281 -87.38281,-87.38281 z"
         sodipodi:nodetypes="ccssccccc" />
      <path
         id="path106"
         style="fill:#febd09;stroke-width:0.32"
         d="m 599.49728,174.80797 c -0.083,0 -35.4854,35.3216 -79.6796,79.45507 L 339.57349,435.05015 c 28.178,28.14675 51.4535,51.2455 51.875,51.46094 0.44,0.2249 1.37412,0.59799 2.07812,0.83008 0.72835,0.24021 2.18915,0.37395 3.38867,0.31055 4.27638,-0.22612 -2.60982,6.38756 93.9375,-90.21094 48.4145,-48.44012 89.3079,-89.58559 90.8731,-91.43359 7.2378,-8.54614 13.2219,-17.75563 17.6875,-27.22266 14.9341,-31.66038 15.6362,-67.71262 1.9511,-100.05664 -0.9122,-2.156 -1.7519,-3.91992 -1.8672,-3.91992 z" />
      <path
         id="path102"
         style="fill:#fe7849;fill-opacity:1;stroke-width:0.32"
         d="M 541.35088,116.71032 281.58521,377.2689 c 10e-4,9.2e-4 0.10103,0.0996 0.10156,0.0996 86.47653,-87.04144 259.99221,-260.43163 259.99221,-260.43163 -0.069,-0.0634 -0.191,-0.14275 -0.3281,-0.22656 z m 0.9765,0.51562 c 0,0 -260.32004,260.30213 -260.31835,260.30079 19.03907,19.04036 38.5254,38.48305 57.56446,57.52342 l 259.92379,-260.24218 -1.3945,-3.01562 c -11.0466,-22.02187 -29.6293,-40.88411 -51.6152,-52.39063 z"
         sodipodi:nodetypes="ccccccccccccc" />
      <path
         id="path92"
         d="m 253.2866,348.80659 -28.56024,-28.56157 c 57.32422,-57.27539 163.65877,-164.79533 188.16118,-187.43173 12.31773,-9.81502 24.87741,-16.66733 39.04,-21.29945 8.32141,-2.72165 15.32884,-4.25563 24.64,-5.39387 5.75386,-0.70336 20.05744,-0.79281 25.60004,-0.16008 9.3828,1.07115 18.3444,3.02604 26.56,5.79384 4.2876,1.4445 12.4769,4.74807 13.5998,5.47221 -92.63274,94.02099 -145.60342,145.25903 -260.48055,260.14221 z"
         style="fill:#fe1d73;fill-opacity:1;stroke-width:0.32;stroke:none"
         sodipodi:nodetypes="ccccsssscc" />
      <path
         id="path84"
         d="m 451.69225,688.47282 c -10.39171,-1.68896 -18.59472,-6.00624 -25.94813,-13.65664 -3.84304,-3.99827 -6.24499,-7.50355 -8.75481,-12.77641 -4.16532,-8.75088 -5.7906,-16.59981 -5.78784,-27.95139 0.004,-17.78365 5.36361,-31.70532 16.2024,-42.08839 6.3151,-6.04957 13.14304,-9.60726 22.19612,-11.56531 2.84765,-0.61587 4.31152,-0.72669 9.6,-0.72669 5.28848,0 6.75236,0.11082 9.6,0.72669 6.25066,1.35194 11.48474,3.51539 16.48,6.8119 3.51111,2.31706 10.06256,8.92407 12.44983,12.55533 4.68496,7.12631 8.29283,17.22583 9.04992,25.33338 l 0.18553,1.98691 -1.08262,0.33917 c -0.59546,0.18653 -8.78666,2.85853 -18.20266,5.93773 -9.416,3.07923 -24.96371,8.1358 -34.55049,11.23689 -9.58679,3.10109 -17.47853,5.68637 -17.53725,5.74509 -0.1687,0.16867 1.43878,3.97088 2.30029,5.44093 3.27555,5.58928 7.69597,9.03872 13.85171,10.80905 2.10525,0.60544 3.27178,0.71773 7.45574,0.71773 4.18397,0 5.3505,-0.11229 7.45575,-0.71773 8.35203,-2.40195 14.0735,-8.46016 16.61107,-17.58864 0.47008,-1.69107 0.89363,-2.63846 1.18026,-2.64 0.58572,-0.003 20.96326,3.54183 21.09084,3.66909 0.16586,0.16544 -0.86268,3.85661 -1.89644,6.80595 -1.41136,4.02653 -4.76199,10.37885 -7.1362,13.52925 -6.95894,9.23395 -16.27433,15.20493 -27.54528,17.65591 -3.8966,0.84736 -13.2159,1.06873 -17.26774,0.4102 z m 29.90294,-73.60012 c 0.003,-0.18 -0.52294,-1.21936 -1.16793,-2.3097 -4.36391,-7.37674 -10.66336,-11.0377 -19.78727,-11.49949 -7.6688,-0.38813 -13.9407,1.7352 -18.59872,6.29648 -4.97798,4.87466 -7.5295,11.28291 -8.58307,21.55699 -0.14803,1.4433 -0.0984,1.84404 0.21466,1.73444 16.58556,-6.19667 30.69173,-8.44967 47.92233,-15.77872 z m 76.6448,73.88742 c -11.72508,-1.77267 -19.81651,-5.65901 -27.20444,-13.0664 -9.69204,-9.71754 -14.83047,-22.6841 -15.4129,-38.89373 -1.04438,-29.06496 13.96016,-51.09712 38.39706,-56.38086 4.73433,-1.02365 14.58623,-1.02365 19.32057,0 16.73802,3.6191 29.10749,14.90237 34.96438,31.89401 1.23776,3.59098 2.58676,9.44778 3.02823,13.14746 l 0.19337,1.62058 -7.92313,2.579 c -31.71091,10.32196 -45.65341,14.85552 -53.95091,17.54279 l -9.54778,3.09219 0.20515,0.85242 c 0.32487,1.34988 1.95405,4.69843 3.09725,6.36588 4.53699,6.6176 11.39168,9.99812 20.27315,9.99812 9.41155,0 16.62109,-3.85079 20.99568,-11.21434 1.3017,-2.19104 3.48432,-7.80397 3.48432,-8.96035 0,-0.35034 0.20077,-0.71402 0.44611,-0.80819 0.24538,-0.0942 5.06797,0.63036 10.7169,1.61004 5.6489,0.97968 10.40698,1.78125 10.57347,1.78125 0.16653,0 0.033,0.972 -0.2967,2.16 -4.08195,14.70845 -12.44976,25.66189 -24.19968,31.67728 -6.92426,3.54487 -12.37264,4.87744 -20.6001,5.0384 -3.08,0.0603 -6.032,0.0443 -6.56,-0.0355 z m 27.75658,-73.68886 c 0.36438,-0.33335 -2.38471,-4.77444 -4.21719,-6.81271 -8.75836,-9.74211 -27.28835,-9.76582 -36.17145,-0.0463 -3.53226,3.86486 -6.20282,10.1031 -7.18717,16.78883 -0.63536,4.3152 -0.65299,5.84582 -0.0647,5.62009 16.38923,-5.81008 29.52395,-8.94373 47.64051,-15.54991 z M 208.96,687.32498 c -4.30386,-0.48774 -9.51212,-2.41971 -13.12,-4.86675 -2.1179,-1.43648 -5.95126,-5.21939 -7.5172,-7.41824 -2.98141,-4.18643 -4.73581,-8.98486 -5.28565,-14.45667 -0.49355,-38.5767 -0.23695,-63.24078 -0.15719,-106.18333 7.89333,0 15.78667,0 23.68,0 0.10667,32.85333 0.21333,65.70667 0.32,98.56 l 1.02882,2.17203 c 2.10161,4.4369 6.54753,7.79908 11.29118,8.53879 16.43499,0.4845 28.11735,0.32733 45.76,0.32975 v 23.68 c 0,0 -37.4415,1.21927 -56,-0.35501 z M 280,598.71999 h 23.68 v 88.96 H 280 Z m 47.36,-44.48 h 23.67702 c 0.0543,22.16235 0.10867,44.32469 0.163,66.48704 10.11067,-13.20236 20.22136,-26.4047 30.33206,-39.60704 h 30.9767 l -2.00883,2.64 c -13.03976,17.04827 -23.02903,30.0819 -36.75449,48.00051 l 0.87721,1.15975 c 14.53342,19.39412 26.57867,34.04127 41.69734,54.61129 -10.81143,0.22528 -19.05521,0.14845 -30.70511,0.14845 l -1.23732,-1.56534 C 372.59411,670.79699 363.64859,659.08919 351.2,642.82873 l -0.0822,22.42563 -0.0821,22.42563 H 327.36 Z m -38.95979,24.80621 c -2.55246,-0.71872 -4.18472,-1.66896 -6.02108,-3.50534 -1.92774,-1.92775 -2.82532,-3.53322 -3.54524,-6.34132 -1.5152,-5.91024 1.74306,-12.53785 7.47623,-15.20739 1.65206,-0.76924 2.2263,-0.86192 5.36988,-0.86675 3.29382,-0.005 3.65734,0.0597 5.65747,1.00723 2.97641,1.41012 4.82814,3.22352 6.26742,6.1377 1.16198,2.35273 1.19511,2.51779 1.19511,5.95472 0,3.17472 -0.0883,3.72345 -0.86687,5.38493 -2.71225,5.78822 -9.6278,9.09897 -15.53292,7.43622 z"
         style="fill:#000000;stroke-width:0.32"
         sodipodi:nodetypes="ssscssssssscssssssssscsssssccsssccssssssscsscssssssssssssscssscccssccccsccccccccccccccccccccccccccsssssssscs" />
    </g>
  </g>
</svg>
